<?xml version="1.0" encoding="UTF-8" standalone="no"?>
<!-- Created with Inkscape (http://www.inkscape.org/) -->

<svg
   width="167.55099mm"
   height="161.901mm"
   viewBox="59 47.5 167.551 161.901"
   version="1.1"
   id="svg5"
   sodipodi:docname="background.svg"
   inkscape:version="1.2.2 (732a01da63, 2022-12-09)"
   xmlns:inkscape="http://www.inkscape.org/namespaces/inkscape"
   xmlns:sodipodi="http://sodipodi.sourceforge.net/DTD/sodipodi-0.dtd"
   xmlns="http://www.w3.org/2000/svg"
   xmlns:svg="http://www.w3.org/2000/svg">
  <sodipodi:namedview
     id="namedview7"
     pagecolor="#ffffff"
     bordercolor="#000000"
     borderopacity="0.25"
     inkscape:showpageshadow="2"
     inkscape:pageopacity="0.0"
     inkscape:pagecheckerboard="0"
     inkscape:deskcolor="#d1d1d1"
     inkscape:document-units="mm"
     showgrid="false"
     inkscape:zoom="1.0444209"
     inkscape:cx="278.6233"
     inkscape:cy="326.49672"
     inkscape:window-width="1920"
     inkscape:window-height="1009"
     inkscape:window-x="-8"
     inkscape:window-y="-8"
     inkscape:window-maximized="1"
     inkscape:current-layer="layer1" />
  <defs
     id="defs2">
    <inkscape:perspective
       sodipodi:type="inkscape:persp3d"
       inkscape:vp_x="0 : -80.433494 : 1"
       inkscape:vp_y="0 : 999.99981 : 0"
       inkscape:vp_z="210.00012 : -80.433494 : 1"
       inkscape:persp3d-origin="105.00001 : -129.93347 : 1"
       id="perspective240" />
  </defs>
  <g
     inkscape:label="Layer 1"
     inkscape:groupmode="layer"
     id="layer1"
     transform="translate(-4.1993821,-32.26368)">
    <rect
       style="fill:#f9c901;fill-opacity:1;stroke-width:0.174864"
       id="rect5952"
       width="168.19279"
       height="162.30887"
       x="62.856335"
       y="79.646614"
       ry="0" />
    <path
       sodipodi:type="star"
       style="fill:#896800;fill-opacity:1;stroke-width:0.264583"
       id="path7458-3-8-8-2-7-2-0-9-8-0"
       inkscape:flatsided="true"
       sodipodi:sides="6"
       sodipodi:cx="164.68457"
       sodipodi:cy="153.19495"
       sodipodi:r1="147.49985"
       sodipodi:r2="185.45744"
       sodipodi:arg1="1.0548708"
       sodipodi:arg2="1.5784695"
       inkscape:rounded="0"
       inkscape:randomized="0"
       d="M 237.45216,281.4957 89.956657,280.3639 17.189065,152.06315 91.916978,24.894196 239.41248,26.025988 312.18008,154.32674 Z"
       transform="matrix(0.11380183,0,0,0.11380183,184.89372,224.12977)"
       inkscape:transform-center-x="-1.005879e-06" />
    <path
       sodipodi:type="star"
       style="fill:#896800;fill-opacity:1;stroke-width:0.264583"
       id="path7458-3-8-8-2-7-2-0-9-8-40"
       inkscape:flatsided="true"
       sodipodi:sides="6"
       sodipodi:cx="164.68457"
       sodipodi:cy="153.19495"
       sodipodi:r1="147.49985"
       sodipodi:r2="185.45744"
       sodipodi:arg1="1.0548708"
       sodipodi:arg2="1.5784695"
       inkscape:rounded="0"
       inkscape:randomized="0"
       d="M 237.45216,281.4957 89.956657,280.3639 17.189065,152.06315 91.916978,24.894196 239.41248,26.025988 312.18008,154.32674 Z"
       transform="matrix(0.11380183,0,0,0.11380183,129.10472,223.91185)"
       inkscape:transform-center-y="3.6863741e-06" />
    <path
       sodipodi:type="star"
       style="fill:#896800;fill-opacity:1;stroke-width:0.264583"
       id="path7458-3-8-8-2-7-2-0-9-8-3"
       inkscape:flatsided="true"
       sodipodi:sides="6"
       sodipodi:cx="164.68457"
       sodipodi:cy="153.19495"
       sodipodi:r1="147.49985"
       sodipodi:r2="185.45744"
       sodipodi:arg1="1.0548708"
       sodipodi:arg2="1.5784695"
       inkscape:rounded="0"
       inkscape:randomized="0"
       d="M 237.45216,281.4957 89.956657,280.3639 17.189065,152.06315 91.916978,24.894196 239.41248,26.025988 312.18008,154.32674 Z"
       transform="matrix(0.11380183,0,0,0.11380183,72.740718,224.12977)"
       inkscape:transform-center-y="4.8357679e-06" />
    <path
       sodipodi:type="star"
       style="fill:#f6e000;fill-opacity:1;stroke-width:0.264583"
       id="path7458"
       inkscape:flatsided="true"
       sodipodi:sides="6"
       sodipodi:cx="164.68457"
       sodipodi:cy="153.19495"
       sodipodi:r1="147.49985"
       sodipodi:r2="185.45744"
       sodipodi:arg1="1.0548708"
       sodipodi:arg2="1.5784695"
       inkscape:rounded="0"
       inkscape:randomized="0"
       d="M 237.45216,281.4957 89.956657,280.3639 17.189065,152.06315 91.916978,24.894196 239.41248,26.025988 312.18008,154.32674 Z"
       transform="matrix(0.11380183,0,0,0.11380183,72.444962,94.465401)" />
    <path
       sodipodi:type="star"
       style="fill:#896800;fill-opacity:1;stroke-width:0.264583"
       id="path7458-3"
       inkscape:flatsided="true"
       sodipodi:sides="6"
       sodipodi:cx="164.68457"
       sodipodi:cy="153.19495"
       sodipodi:r1="147.49985"
       sodipodi:r2="185.45744"
       sodipodi:arg1="1.0548708"
       sodipodi:arg2="1.5784695"
       inkscape:rounded="0"
       inkscape:randomized="0"
       d="M 237.45216,281.4957 89.956657,280.3639 17.189065,152.06315 91.916978,24.894196 239.41248,26.025988 312.18008,154.32674 Z"
       transform="matrix(0.11380183,0,0,0.11380183,71.791192,127.58974)"
       inkscape:transform-center-x="-1.0129821e-06" />
    <path
       sodipodi:type="star"
       style="fill:#f6e000;fill-opacity:1;stroke-width:0.264583"
       id="path7458-3-8"
       inkscape:flatsided="true"
       sodipodi:sides="6"
       sodipodi:cx="164.68457"
       sodipodi:cy="153.19495"
       sodipodi:r1="147.49985"
       sodipodi:r2="185.45744"
       sodipodi:arg1="1.0548708"
       sodipodi:arg2="1.5784695"
       inkscape:rounded="0"
       inkscape:randomized="0"
       d="M 237.45216,281.4957 89.956657,280.3639 17.189065,152.06315 91.916978,24.894196 239.41248,26.025988 312.18008,154.32674 Z"
       transform="matrix(0.11380183,0,0,0.11380183,99.685374,176.18664)"
       inkscape:transform-center-x="-1.0903962e-06" />
    <path
       sodipodi:type="star"
       style="fill:#896800;fill-opacity:1;stroke-width:0.264583"
       id="path7458-3-8-8"
       inkscape:flatsided="true"
       sodipodi:sides="6"
       sodipodi:cx="164.68457"
       sodipodi:cy="153.19495"
       sodipodi:r1="147.49985"
       sodipodi:r2="185.45744"
       sodipodi:arg1="1.0548708"
       sodipodi:arg2="1.5784695"
       inkscape:rounded="0"
       inkscape:randomized="0"
       d="M 237.45216,281.4957 89.956657,280.3639 17.189065,152.06315 91.916978,24.894196 239.41248,26.025988 312.18008,154.32674 Z"
       transform="matrix(0.11380183,0,0,0.11380183,99.903298,144.15191)"
       inkscape:transform-center-x="-1.0783841e-06" />
    <path
       sodipodi:type="star"
       style="fill:#896800;fill-opacity:1;stroke-width:0.264583"
       id="path7458-3-8-8-2"
       inkscape:flatsided="true"
       sodipodi:sides="6"
       sodipodi:cx="164.68457"
       sodipodi:cy="153.19495"
       sodipodi:r1="147.49985"
       sodipodi:r2="185.45744"
       sodipodi:arg1="1.0548708"
       sodipodi:arg2="1.5784695"
       inkscape:rounded="0"
       inkscape:randomized="0"
       d="M 237.45216,281.4957 89.956657,280.3639 17.189065,152.06315 91.916978,24.894196 239.41248,26.025988 312.18008,154.32674 Z"
       transform="matrix(0.11380183,0,0,0.11380183,100.55707,111.2455)" />
    <path
       sodipodi:type="star"
       style="fill:#896800;fill-opacity:1;stroke-width:0.264583"
       id="path7458-3-8-8-2-7"
       inkscape:flatsided="true"
       sodipodi:sides="6"
       sodipodi:cx="164.68457"
       sodipodi:cy="153.19495"
       sodipodi:r1="147.49985"
       sodipodi:r2="185.45744"
       sodipodi:arg1="1.0548708"
       sodipodi:arg2="1.5784695"
       inkscape:rounded="0"
       inkscape:randomized="0"
       d="M 237.45216,281.4957 89.956657,280.3639 17.189065,152.06315 91.916978,24.894196 239.41248,26.025988 312.18008,154.32674 Z"
       transform="matrix(0.11380183,0,0,0.11380183,100.77499,78.121153)"
       inkscape:transform-center-x="-1.0411561e-06" />
    <path
       sodipodi:type="star"
       style="fill:#896800;fill-opacity:1;stroke-width:0.264583"
       id="path7458-3-8-8-2-7-2"
       inkscape:flatsided="true"
       sodipodi:sides="6"
       sodipodi:cx="164.68457"
       sodipodi:cy="153.19495"
       sodipodi:r1="147.49985"
       sodipodi:r2="185.45744"
       sodipodi:arg1="1.0548708"
       sodipodi:arg2="1.5784695"
       inkscape:rounded="0"
       inkscape:randomized="0"
       d="M 237.45216,281.4957 89.956657,280.3639 17.189065,152.06315 91.916978,24.894196 239.41248,26.025988 312.18008,154.32674 Z"
       transform="matrix(0.11380183,0,0,0.11380183,72.009116,160.27823)"
       inkscape:transform-center-x="-1.0009701e-06" />
    <path
       sodipodi:type="star"
       style="fill:#896800;fill-opacity:1;stroke-width:0.264583"
       id="path7458-3-8-8-2-7-2-0"
       inkscape:flatsided="true"
       sodipodi:sides="6"
       sodipodi:cx="164.68457"
       sodipodi:cy="153.19495"
       sodipodi:r1="147.49985"
       sodipodi:r2="185.45744"
       sodipodi:arg1="1.0548708"
       sodipodi:arg2="1.5784695"
       inkscape:rounded="0"
       inkscape:randomized="0"
       d="M 237.45216,281.4957 89.956657,280.3639 17.189065,152.06315 91.916978,24.894196 239.41248,26.025988 312.18008,154.32674 Z"
       transform="matrix(0.11380183,0,0,0.11380183,128.8871,160.71408)" />
    <path
       sodipodi:type="star"
       style="fill:#896800;fill-opacity:1;stroke-width:0.264583"
       id="path7458-3-8-8-2-7-2-0-9"
       inkscape:flatsided="true"
       sodipodi:sides="6"
       sodipodi:cx="164.68457"
       sodipodi:cy="153.19495"
       sodipodi:r1="147.49985"
       sodipodi:r2="185.45744"
       sodipodi:arg1="1.0548708"
       sodipodi:arg2="1.5784695"
       inkscape:rounded="0"
       inkscape:randomized="0"
       d="M 237.45216,281.4957 89.956657,280.3639 17.189065,152.06315 91.916978,24.894196 239.41248,26.025988 312.18008,154.32674 Z"
       transform="matrix(0.11380183,0,0,0.11380183,128.66917,95.119171)" />
    <path
       sodipodi:type="star"
       style="fill:#896800;fill-opacity:1;stroke-width:0.264583"
       id="path7458-3-8-8-2-7-2-0-9-8"
       inkscape:flatsided="true"
       sodipodi:sides="6"
       sodipodi:cx="164.68457"
       sodipodi:cy="153.19495"
       sodipodi:r1="147.49985"
       sodipodi:r2="185.45744"
       sodipodi:arg1="1.0548708"
       sodipodi:arg2="1.5784695"
       inkscape:rounded="0"
       inkscape:randomized="0"
       d="M 237.45216,281.4957 89.956657,280.3639 17.189065,152.06315 91.916978,24.894196 239.41248,26.025988 312.18008,154.32674 Z"
       transform="matrix(0.11380183,0,0,0.11380183,156.56335,79.864539)" />
    <path
       sodipodi:type="star"
       style="fill:#896800;fill-opacity:1;stroke-width:0.264583"
       id="path7458-3-8-8-2-7-2-0-9-8-1"
       inkscape:flatsided="true"
       sodipodi:sides="6"
       sodipodi:cx="164.68457"
       sodipodi:cy="153.19495"
       sodipodi:r1="147.49985"
       sodipodi:r2="185.45744"
       sodipodi:arg1="1.0548708"
       sodipodi:arg2="1.5784695"
       inkscape:rounded="0"
       inkscape:randomized="0"
       d="M 237.45216,281.4957 89.956657,280.3639 17.189065,152.06315 91.916978,24.894196 239.41248,26.025988 312.18008,154.32674 Z"
       transform="matrix(0.11380183,0,0,0.11380183,212.78756,78.944918)" />
    <path
       sodipodi:type="star"
       style="fill:#896800;fill-opacity:1;stroke-width:0.264583"
       id="path7458-3-8-8-2-7-2-0-9-8-5"
       inkscape:flatsided="true"
       sodipodi:sides="6"
       sodipodi:cx="164.68457"
       sodipodi:cy="153.19495"
       sodipodi:r1="147.49985"
       sodipodi:r2="185.45744"
       sodipodi:arg1="1.0548708"
       sodipodi:arg2="1.5784695"
       inkscape:rounded="0"
       inkscape:randomized="0"
       d="M 237.45216,281.4957 89.956657,280.3639 17.189065,152.06315 91.916978,24.894196 239.41248,26.025988 312.18008,154.32674 Z"
       transform="matrix(0.11380183,0,0,0.11380183,212.1338,110.94995)"
       inkscape:transform-center-x="-1.072473e-06" />
    <path
       sodipodi:type="star"
       style="fill:#896800;fill-opacity:1;stroke-width:0.264583"
       id="path7458-3-8-8-2-7-2-0-9-8-18"
       inkscape:flatsided="true"
       sodipodi:sides="6"
       sodipodi:cx="164.68457"
       sodipodi:cy="153.19495"
       sodipodi:r1="147.49985"
       sodipodi:r2="185.45744"
       sodipodi:arg1="1.0548708"
       sodipodi:arg2="1.5784695"
       inkscape:rounded="0"
       inkscape:randomized="0"
       d="M 237.45216,281.4957 89.956657,280.3639 17.189065,152.06315 91.916978,24.894196 239.41248,26.025988 312.18008,154.32674 Z"
       transform="matrix(0.11380183,0,0,0.11380183,213.22341,143.27995)" />
    <path
       sodipodi:type="star"
       style="fill:#896800;fill-opacity:1;stroke-width:0.264583"
       id="path7458-3-8-8-2-7-2-0-9-8-64"
       inkscape:flatsided="true"
       sodipodi:sides="6"
       sodipodi:cx="164.68457"
       sodipodi:cy="153.19495"
       sodipodi:r1="147.49985"
       sodipodi:r2="185.45744"
       sodipodi:arg1="1.0548708"
       sodipodi:arg2="1.5784695"
       inkscape:rounded="0"
       inkscape:randomized="0"
       d="M 237.45216,281.4957 89.956657,280.3639 17.189065,152.06315 91.916978,24.894196 239.41248,26.025988 312.18008,154.32674 Z"
       transform="matrix(0.11380183,0,0,0.11380183,211.91587,207.36495)" />
    <path
       sodipodi:type="star"
       style="fill:#896800;fill-opacity:1;stroke-width:0.264583"
       id="path7458-3-8-8-2-7-2-0-9-8-4"
       inkscape:flatsided="true"
       sodipodi:sides="6"
       sodipodi:cx="164.68457"
       sodipodi:cy="153.19495"
       sodipodi:r1="147.49985"
       sodipodi:r2="185.45744"
       sodipodi:arg1="1.0548708"
       sodipodi:arg2="1.5784695"
       inkscape:rounded="0"
       inkscape:randomized="0"
       d="M 237.45216,281.4957 89.956657,280.3639 17.189065,152.06315 91.916978,24.894196 239.41248,26.025988 312.18008,154.32674 Z"
       transform="matrix(0.11380183,0,0,0.11380183,212.1338,175.46995)"
       inkscape:transform-center-x="-1.072473e-06" />
    <path
       sodipodi:type="star"
       style="fill:#896800;fill-opacity:1;stroke-width:0.264583"
       id="path7458-3-8-8-2-7-2-0-9-8-6"
       inkscape:flatsided="true"
       sodipodi:sides="6"
       sodipodi:cx="164.68457"
       sodipodi:cy="153.19495"
       sodipodi:r1="147.49985"
       sodipodi:r2="185.45744"
       sodipodi:arg1="1.0548708"
       sodipodi:arg2="1.5784695"
       inkscape:rounded="0"
       inkscape:randomized="0"
       d="M 237.45216,281.4957 89.956657,280.3639 17.189065,152.06315 91.916978,24.894196 239.41248,26.025988 312.18008,154.32674 Z"
       transform="matrix(0.11380183,0,0,0.11380183,128.66917,128.02559)" />
    <path
       sodipodi:type="star"
       style="fill:#896800;fill-opacity:1;stroke-width:0.264583"
       id="path7458-3-8-8-2-7-2-0-9-8-6-7"
       inkscape:flatsided="true"
       sodipodi:sides="6"
       sodipodi:cx="164.68457"
       sodipodi:cy="153.19495"
       sodipodi:r1="147.49985"
       sodipodi:r2="185.45744"
       sodipodi:arg1="1.0548708"
       sodipodi:arg2="1.5784695"
       inkscape:rounded="0"
       inkscape:randomized="0"
       d="M 237.45216,281.4957 89.956657,280.3639 17.189065,152.06315 91.916978,24.894196 239.41248,26.025988 312.18008,154.32674 Z"
       transform="matrix(0.11380183,0,0,0.11380183,156.9992,144.36984)" />
    <path
       sodipodi:type="star"
       style="fill:#896800;fill-opacity:1;stroke-width:0.264583"
       id="path7458-3-8-8-2-7-2-0-9-8-6-1"
       inkscape:flatsided="true"
       sodipodi:sides="6"
       sodipodi:cx="164.68457"
       sodipodi:cy="153.19495"
       sodipodi:r1="147.49985"
       sodipodi:r2="185.45744"
       sodipodi:arg1="1.0548708"
       sodipodi:arg2="1.5784695"
       inkscape:rounded="0"
       inkscape:randomized="0"
       d="M 237.45216,281.4957 89.956657,280.3639 17.189065,152.06315 91.916978,24.894196 239.41248,26.025988 312.18008,154.32674 Z"
       transform="matrix(0.11380183,0,0,0.11380183,156.9992,176.84041)" />
    <path
       sodipodi:type="star"
       style="fill:#896800;fill-opacity:1;stroke-width:0.264583"
       id="path7458-3-8-8-2-7-2-0-9-8-6-6"
       inkscape:flatsided="true"
       sodipodi:sides="6"
       sodipodi:cx="164.68457"
       sodipodi:cy="153.19495"
       sodipodi:r1="147.49985"
       sodipodi:r2="185.45744"
       sodipodi:arg1="1.0548708"
       sodipodi:arg2="1.5784695"
       inkscape:rounded="0"
       inkscape:randomized="0"
       d="M 237.45216,281.4957 89.956657,280.3639 17.189065,152.06315 91.916978,24.894196 239.41248,26.025988 312.18008,154.32674 Z"
       transform="matrix(0.11380183,0,0,0.11380183,128.23333,192.53088)" />
    <path
       sodipodi:type="star"
       style="fill:#896800;fill-opacity:1;stroke-width:0.264583"
       id="path7458-3-8-8-2-7-2-0-9-8-6-6-8"
       inkscape:flatsided="true"
       sodipodi:sides="6"
       sodipodi:cx="164.68457"
       sodipodi:cy="153.19495"
       sodipodi:r1="147.49985"
       sodipodi:r2="185.45744"
       sodipodi:arg1="1.0548708"
       sodipodi:arg2="1.5784695"
       inkscape:rounded="0"
       inkscape:randomized="0"
       d="M 237.45216,281.4957 89.956657,280.3639 17.189065,152.06315 91.916978,24.894196 239.41248,26.025988 312.18008,154.32674 Z"
       transform="matrix(0.11380183,0,0,0.11380183,100.65039,208.12804)"
       inkscape:transform-center-x="-1.0771921e-06" />
    <path
       sodipodi:type="star"
       style="fill:#896800;fill-opacity:1;stroke-width:0.264583"
       id="path7458-3-8-8-2-7-2-0-9-8-6-5"
       inkscape:flatsided="true"
       sodipodi:sides="6"
       sodipodi:cx="164.68457"
       sodipodi:cy="153.19495"
       sodipodi:r1="147.49985"
       sodipodi:r2="185.45744"
       sodipodi:arg1="1.0548708"
       sodipodi:arg2="1.5784695"
       inkscape:rounded="0"
       inkscape:randomized="0"
       d="M 237.45216,281.4957 89.956657,280.3639 17.189065,152.06315 91.916978,24.894196 239.41248,26.025988 312.18008,154.32674 Z"
       transform="matrix(0.11380183,0,0,0.11380183,43.897009,143.28022)" />
    <path
       sodipodi:type="star"
       style="fill:#896800;fill-opacity:1;stroke-width:0.264583"
       id="path7458-3-8-8-2-7-2-0-9-8-6-3"
       inkscape:flatsided="true"
       sodipodi:sides="6"
       sodipodi:cx="164.68457"
       sodipodi:cy="153.19495"
       sodipodi:r1="147.49985"
       sodipodi:r2="185.45744"
       sodipodi:arg1="1.0548708"
       sodipodi:arg2="1.5784695"
       inkscape:rounded="0"
       inkscape:randomized="0"
       d="M 237.45216,281.4957 89.956657,280.3639 17.189065,152.06315 91.916978,24.894196 239.41248,26.025988 312.18008,154.32674 Z"
       transform="matrix(0.11380183,0,0,0.11380183,43.897007,110.94999)" />
    <path
       sodipodi:type="star"
       style="fill:#896800;fill-opacity:1;stroke-width:0.264583"
       id="path7458-3-8-8-2-7-2-0-9-8-6-55"
       inkscape:flatsided="true"
       sodipodi:sides="6"
       sodipodi:cx="164.68457"
       sodipodi:cy="153.19495"
       sodipodi:r1="147.49985"
       sodipodi:r2="185.45744"
       sodipodi:arg1="1.0548708"
       sodipodi:arg2="1.5784695"
       inkscape:rounded="0"
       inkscape:randomized="0"
       d="M 237.45216,281.4957 89.956657,280.3639 17.189065,152.06315 91.916978,24.894196 239.41248,26.025988 312.18008,154.32674 Z"
       transform="matrix(0.11380183,0,0,0.11380183,44.768701,78.944955)" />
    <path
       sodipodi:type="star"
       style="fill:#896800;fill-opacity:1;stroke-width:0.264583"
       id="path7458-3-8-8-2-7-2-0-9-8-6-52"
       inkscape:flatsided="true"
       sodipodi:sides="6"
       sodipodi:cx="164.68457"
       sodipodi:cy="153.19495"
       sodipodi:r1="147.49985"
       sodipodi:r2="185.45744"
       sodipodi:arg1="1.0548708"
       sodipodi:arg2="1.5784695"
       inkscape:rounded="0"
       inkscape:randomized="0"
       d="M 237.45216,281.4957 89.956657,280.3639 17.189065,152.06315 91.916978,24.894196 239.41248,26.025988 312.18008,154.32674 Z"
       transform="matrix(0.11380183,0,0,0.11380183,43.897008,175.47011)"
       inkscape:transform-center-x="-1.0861537e-06" />
    <path
       sodipodi:type="star"
       style="fill:#896800;fill-opacity:1;stroke-width:0.264583"
       id="path7458-3-8-8-2-7-2-0-9-8-6-63"
       inkscape:flatsided="true"
       sodipodi:sides="6"
       sodipodi:cx="164.68457"
       sodipodi:cy="153.19495"
       sodipodi:r1="147.49985"
       sodipodi:r2="185.45744"
       sodipodi:arg1="1.0548708"
       sodipodi:arg2="1.5784695"
       inkscape:rounded="0"
       inkscape:randomized="0"
       d="M 237.45216,281.4957 89.956657,280.3639 17.189065,152.06315 91.916978,24.894196 239.41248,26.025988 312.18008,154.32674 Z"
       transform="matrix(0.11380183,0,0,0.11380183,71.791193,192.09504)" />
    <path
       sodipodi:type="star"
       style="fill:#f6e000;fill-opacity:1;stroke-width:0.264583"
       id="path7458-3-8-8-2-7-2-0-6"
       inkscape:flatsided="true"
       sodipodi:sides="6"
       sodipodi:cx="164.68457"
       sodipodi:cy="153.19495"
       sodipodi:r1="147.49985"
       sodipodi:r2="185.45744"
       sodipodi:arg1="1.0548708"
       sodipodi:arg2="1.5784695"
       inkscape:rounded="0"
       inkscape:randomized="0"
       d="M 237.45216,281.4957 89.956657,280.3639 17.189065,152.06315 91.916978,24.894196 239.41248,26.025988 312.18008,154.32674 Z"
       transform="matrix(0.11380183,0,0,0.11380183,156.56335,111.89927)" />
    <path
       sodipodi:type="star"
       style="fill:#896800;fill-opacity:1;stroke-width:0.264583"
       id="path7458-3-8-8-2-7-2-0-9-8-6-6-5"
       inkscape:flatsided="true"
       sodipodi:sides="6"
       sodipodi:cx="164.68457"
       sodipodi:cy="153.19495"
       sodipodi:r1="147.49985"
       sodipodi:r2="185.45744"
       sodipodi:arg1="1.0548708"
       sodipodi:arg2="1.5784695"
       inkscape:rounded="0"
       inkscape:randomized="0"
       d="M 237.45216,281.4957 89.956657,280.3639 17.189065,152.06315 91.916978,24.894196 239.41248,26.025988 312.18008,154.32674 Z"
       transform="matrix(0.11380183,0,0,0.11380183,156.70369,208.01826)" />
    <path
       sodipodi:type="star"
       style="fill:#896800;fill-opacity:1;stroke-width:0.264583"
       id="path7458-3-8-8-2-7-2-0-9-8-6-6-4"
       inkscape:flatsided="true"
       sodipodi:sides="6"
       sodipodi:cx="164.68457"
       sodipodi:cy="153.19495"
       sodipodi:r1="147.49985"
       sodipodi:r2="185.45744"
       sodipodi:arg1="1.0548708"
       sodipodi:arg2="1.5784695"
       inkscape:rounded="0"
       inkscape:randomized="0"
       d="M 237.45216,281.4957 89.956657,280.3639 17.189065,152.06315 91.916978,24.894196 239.41248,26.025988 312.18008,154.32674 Z"
       transform="matrix(0.11380183,0,0,0.11380183,184.45753,192.00172)" />
    <path
       sodipodi:type="star"
       style="fill:#896800;fill-opacity:1;stroke-width:0.264583"
       id="path7458-3-8-8-2-7-2-0-9-8-6-6-59"
       inkscape:flatsided="true"
       sodipodi:sides="6"
       sodipodi:cx="164.68457"
       sodipodi:cy="153.19495"
       sodipodi:r1="147.49985"
       sodipodi:r2="185.45744"
       sodipodi:arg1="1.0548708"
       sodipodi:arg2="1.5784695"
       inkscape:rounded="0"
       inkscape:randomized="0"
       d="M 237.45216,281.4957 89.956657,280.3639 17.189065,152.06315 91.916978,24.894196 239.41248,26.025988 312.18008,154.32674 Z"
       transform="matrix(0.11380183,0,0,0.11380183,184.58214,159.43782)"
       inkscape:transform-center-x="-1.0975966e-06" />
    <path
       sodipodi:type="star"
       style="fill:#896800;fill-opacity:1;stroke-width:0.264583"
       id="path7458-3-8-8-2-7-2-0-9-8-6-6-6"
       inkscape:flatsided="true"
       sodipodi:sides="6"
       sodipodi:cx="164.68457"
       sodipodi:cy="153.19495"
       sodipodi:r1="147.49985"
       sodipodi:r2="185.45744"
       sodipodi:arg1="1.0548708"
       sodipodi:arg2="1.5784695"
       inkscape:rounded="0"
       inkscape:randomized="0"
       d="M 237.45216,281.4957 89.956657,280.3639 17.189065,152.06315 91.916978,24.894196 239.41248,26.025988 312.18008,154.32674 Z"
       transform="matrix(0.11380183,0,0,0.11380183,185.11131,127.58974)"
       inkscape:transform-center-x="-1.0975966e-06" />
    <path
       sodipodi:type="star"
       style="fill:#896800;fill-opacity:1;stroke-width:0.264583"
       id="path7458-3-8-8-2-7-2-0-9-8-6-6-21"
       inkscape:flatsided="true"
       sodipodi:sides="6"
       sodipodi:cx="164.68457"
       sodipodi:cy="153.19495"
       sodipodi:r1="147.49985"
       sodipodi:r2="185.45744"
       sodipodi:arg1="1.0548708"
       sodipodi:arg2="1.5784695"
       inkscape:rounded="0"
       inkscape:randomized="0"
       d="M 237.45216,281.4957 89.956657,280.3639 17.189065,152.06315 91.916978,24.894196 239.41248,26.025988 312.18008,154.32674 Z"
       transform="matrix(0.11380183,0,0,0.11380183,184.67546,95.461695)" />
    <path
       sodipodi:type="star"
       style="fill:#896800;fill-opacity:1;stroke-width:0.264583"
       id="path7458-3-8-8-2-7-2-0-9-8-6-6-7"
       inkscape:flatsided="true"
       sodipodi:sides="6"
       sodipodi:cx="164.68457"
       sodipodi:cy="153.19495"
       sodipodi:r1="147.49985"
       sodipodi:r2="185.45744"
       sodipodi:arg1="1.0548708"
       sodipodi:arg2="1.5784695"
       inkscape:rounded="0"
       inkscape:randomized="0"
       d="M 237.45216,281.4957 89.956657,280.3639 17.189065,152.06315 91.916978,24.894196 239.41248,26.025988 312.18008,154.32674 Z"
       transform="matrix(0.11380183,0,0,0.11380183,184.89338,62.6486)" />
    <path
       sodipodi:type="star"
       style="fill:#896800;fill-opacity:1;stroke-width:0.264583"
       id="path7458-3-8-8-2-7-2-0-9-8-6-6-2"
       inkscape:flatsided="true"
       sodipodi:sides="6"
       sodipodi:cx="164.68457"
       sodipodi:cy="153.19495"
       sodipodi:r1="147.49985"
       sodipodi:r2="185.45744"
       sodipodi:arg1="1.0548708"
       sodipodi:arg2="1.5784695"
       inkscape:rounded="0"
       inkscape:randomized="0"
       d="M 237.45216,281.4957 89.956657,280.3639 17.189065,152.06315 91.916978,24.894196 239.41248,26.025988 312.18008,154.32674 Z"
       transform="matrix(0.11380183,0,0,0.11380183,43.243235,207.3645)" />
    <path
       sodipodi:type="star"
       style="fill:#896800;fill-opacity:1;stroke-width:0.264583"
       id="path7458-3-8-8-2-7-2-0-9-8-60"
       inkscape:flatsided="true"
       sodipodi:sides="6"
       sodipodi:cx="164.68457"
       sodipodi:cy="153.19495"
       sodipodi:r1="147.49985"
       sodipodi:r2="185.45744"
       sodipodi:arg1="1.0548708"
       sodipodi:arg2="1.5784695"
       inkscape:rounded="0"
       inkscape:randomized="0"
       d="M 237.45216,281.4957 89.956657,280.3639 17.189065,152.06315 91.916978,24.894196 239.41248,26.025988 312.18008,154.32674 Z"
       transform="matrix(0.11380183,0,0,0.11380183,129.10502,62.430675)" />
    <path
       sodipodi:type="star"
       style="fill:#896800;fill-opacity:1;stroke-width:0.264583"
       id="path7458-3-8-8-2-7-2-0-9-8-401"
       inkscape:flatsided="true"
       sodipodi:sides="6"
       sodipodi:cx="164.68457"
       sodipodi:cy="153.19495"
       sodipodi:r1="147.49985"
       sodipodi:r2="185.45744"
       sodipodi:arg1="1.0548708"
       sodipodi:arg2="1.5784695"
       inkscape:rounded="0"
       inkscape:randomized="0"
       d="M 237.45216,281.4957 89.956657,280.3639 17.189065,152.06315 91.916978,24.894196 239.41248,26.025988 312.18008,154.32674 Z"
       transform="matrix(0.11380183,0,0,0.11380183,72.740466,62.430676)" />
  </g>
</svg>
